<?xml version="1.0" encoding="UTF-8" standalone="no"?>
<svg width="21px" height="29px" viewBox="0 0 21 29" version="1.1" xmlns="http://www.w3.org/2000/svg" xmlns:xlink="http://www.w3.org/1999/xlink" xmlns:sketch="http://www.bohemiancoding.com/sketch/ns">
    <!-- Generator: Sketch 3.3.2 (12043) - http://www.bohemiancoding.com/sketch -->
    <title>trash-icon</title>
    <desc>Created with Sketch.</desc>
    <defs></defs>
    <g id="Page-1" stroke="none" stroke-width="1" fill="none" fill-rule="evenodd" sketch:type="MSPage">
        <g id="trash-icon" sketch:type="MSArtboardGroup" fill="#9B9B9B">
            <g sketch:type="MSLayerGroup" transform="translate(1.000000, 2.000000)" id="Shape">
                <path d="M17.996,6.451 C17.996,5.752 17.43,5.185 16.73,5.185 L13.787,5.185 C13.594,2.702 11.533,0.733 9,0.733 C6.467,0.733 4.406,2.702 4.213,5.185 L1.27,5.185 C0.571,5.185 0.003,5.751 0.003,6.451 C0.003,7.123 0.531,7.66 1.192,7.702 L1.192,22 C1.192,22.699 1.759,23.267 2.459,23.267 L11.537,23.267 L15.541,23.267 C16.24,23.267 16.807,22.7 16.807,22 L16.807,7.702 C17.469,7.661 17.996,7.124 17.996,6.451 L17.996,6.451 Z M9,3.266 C10.136,3.266 11.076,4.1 11.255,5.186 L6.744,5.186 C6.924,4.1 7.864,3.266 9,3.266 L9,3.266 Z M11.537,20.733 L3.725,20.733 L3.725,7.718 L14.275,7.718 L14.275,20.734 L11.537,20.734 L11.537,20.733 Z" sketch:type="MSShapeGroup"></path>
                <path d="M6.914,10.086 C6.215,10.086 5.647,10.652 5.647,11.352 L5.647,17.288 C5.647,17.987 6.214,18.555 6.914,18.555 C7.614,18.555 8.18,17.988 8.18,17.288 L8.18,11.352 C8.179,10.652 7.613,10.086 6.914,10.086 L6.914,10.086 Z" sketch:type="MSShapeGroup"></path>
                <path d="M11.053,10.086 C10.354,10.086 9.787,10.652 9.787,11.352 L9.787,17.288 C9.787,17.987 10.354,18.555 11.053,18.555 C11.752,18.555 12.319,17.988 12.319,17.288 L12.319,11.352 C12.318,10.652 11.752,10.086 11.053,10.086 L11.053,10.086 Z" sketch:type="MSShapeGroup"></path>
            </g>
        </g>
    </g>
</svg>